<svg width="100" height="100" viewBox="0 0 100 100" fill="none" xmlns="http://www.w3.org/2000/svg">
<rect width="100" height="100" fill="#B6C1DD"/>
<path d="M21.1769 47V21.08H23.2469V44.984H35.8469V47H21.1769ZM48.9303 47.54C46.9863 47.54 45.2583 47.138 43.7463 46.334C42.2463 45.518 41.0643 44.378 40.2003 42.914C39.3483 41.438 38.9223 39.71 38.9223 37.73V21.08H41.0103V37.298C41.0103 38.774 41.2563 40.04 41.7483 41.096C42.2523 42.14 42.9003 42.992 43.6923 43.652C44.4963 44.312 45.3543 44.798 46.2663 45.11C47.1903 45.422 48.0783 45.578 48.9303 45.578C49.7823 45.578 50.6703 45.422 51.5943 45.11C52.5183 44.798 53.3763 44.312 54.1683 43.652C54.9603 42.992 55.6023 42.14 56.0943 41.096C56.5983 40.04 56.8503 38.774 56.8503 37.298V21.08H58.9383V37.73C58.9383 39.698 58.5063 41.42 57.6423 42.896C56.7903 44.36 55.6083 45.5 54.0963 46.316C52.5963 47.132 50.8743 47.54 48.9303 47.54ZM61.8288 47L70.8648 33.86L62.0448 21.08H64.5468L72.0708 32.15L79.6128 21.08H82.1148L73.2948 33.86L82.3308 47H79.8288L72.0708 35.606L64.3308 47H61.8288ZM12.8453 81V57.096H3.55727V55.08H24.2033V57.096H14.9153V81H12.8453ZM27.0923 81V55.08H36.8663C37.1183 55.08 37.3883 55.092 37.6763 55.116C37.9763 55.128 38.2883 55.164 38.6123 55.224C39.9083 55.428 41.0183 55.896 41.9423 56.628C42.8783 57.348 43.5923 58.26 44.0843 59.364C44.5763 60.456 44.8223 61.662 44.8223 62.982C44.8223 64.89 44.3123 66.552 43.2923 67.968C42.2723 69.384 40.8503 70.284 39.0263 70.668L38.4323 70.902H29.1623V81H27.0923ZM43.0583 81L37.9463 70.452L39.8723 69.48L45.4883 81H43.0583ZM29.1623 68.868H36.8303C37.0463 68.868 37.2923 68.856 37.5683 68.832C37.8563 68.808 38.1443 68.772 38.4323 68.724C39.3683 68.532 40.1483 68.154 40.7723 67.59C41.3963 67.014 41.8643 66.324 42.1763 65.52C42.4883 64.716 42.6443 63.87 42.6443 62.982C42.6443 62.094 42.4883 61.254 42.1763 60.462C41.8643 59.658 41.3963 58.974 40.7723 58.41C40.1483 57.834 39.3683 57.45 38.4323 57.258C38.1443 57.198 37.8563 57.156 37.5683 57.132C37.2923 57.108 37.0463 57.096 36.8303 57.096H29.1623V68.868ZM49.8116 81V55.08H51.8816V81H49.8116ZM57.2915 81V55.08H67.0655C67.3175 55.08 67.5875 55.092 67.8755 55.116C68.1755 55.128 68.4875 55.164 68.8115 55.224C70.1075 55.428 71.2175 55.896 72.1415 56.628C73.0775 57.348 73.7915 58.26 74.2835 59.364C74.7755 60.456 75.0215 61.662 75.0215 62.982C75.0215 64.314 74.7755 65.532 74.2835 66.636C73.7915 67.728 73.0775 68.64 72.1415 69.372C71.2175 70.092 70.1075 70.554 68.8115 70.758C68.4875 70.806 68.1755 70.842 67.8755 70.866C67.5875 70.89 67.3175 70.902 67.0655 70.902H59.3615V81H57.2915ZM59.3615 68.868H67.0295C67.2455 68.868 67.4915 68.856 67.7675 68.832C68.0555 68.808 68.3435 68.772 68.6315 68.724C69.5675 68.532 70.3475 68.154 70.9715 67.59C71.5955 67.014 72.0635 66.324 72.3755 65.52C72.6875 64.716 72.8435 63.87 72.8435 62.982C72.8435 62.094 72.6875 61.254 72.3755 60.462C72.0635 59.658 71.5955 58.974 70.9715 58.41C70.3475 57.834 69.5675 57.45 68.6315 57.258C68.3435 57.198 68.0555 57.156 67.7675 57.132C67.4915 57.108 67.2455 57.096 67.0295 57.096H59.3615V68.868ZM87.4333 81.54C85.6573 81.54 84.0553 81.246 82.6273 80.658C81.2113 80.07 80.0353 79.236 79.0993 78.156C78.1753 77.076 77.5573 75.792 77.2453 74.304L79.3693 73.944C79.8133 75.672 80.7613 77.034 82.2133 78.03C83.6773 79.026 85.4353 79.524 87.4873 79.524C88.8793 79.524 90.1093 79.302 91.1773 78.858C92.2453 78.414 93.0793 77.79 93.6793 76.986C94.2793 76.17 94.5793 75.222 94.5793 74.142C94.5793 73.362 94.4353 72.708 94.1473 72.18C93.8713 71.652 93.5113 71.22 93.0673 70.884C92.6233 70.536 92.1493 70.26 91.6453 70.056C91.1413 69.84 90.6673 69.666 90.2233 69.534L83.7073 67.59C82.8433 67.338 82.0693 67.026 81.3853 66.654C80.7133 66.27 80.1433 65.832 79.6753 65.34C79.2193 64.836 78.8653 64.266 78.6133 63.63C78.3733 62.994 78.2533 62.286 78.2533 61.506C78.2533 60.114 78.6253 58.896 79.3693 57.852C80.1133 56.808 81.1333 55.998 82.4293 55.422C83.7373 54.834 85.2373 54.54 86.9293 54.54C88.6333 54.552 90.1633 54.87 91.5193 55.494C92.8753 56.106 93.9853 56.976 94.8493 58.104C95.7253 59.232 96.2893 60.57 96.5413 62.118L94.3993 62.496C94.2313 61.308 93.7993 60.27 93.1033 59.382C92.4193 58.494 91.5433 57.804 90.4753 57.312C89.4073 56.82 88.2193 56.574 86.9113 56.574C85.6513 56.562 84.5353 56.772 83.5633 57.204C82.6033 57.636 81.8473 58.218 81.2953 58.95C80.7433 59.682 80.4673 60.51 80.4673 61.434C80.4673 62.394 80.7253 63.162 81.2413 63.738C81.7693 64.302 82.4113 64.746 83.1673 65.07C83.9353 65.394 84.6673 65.658 85.3633 65.862L90.5833 67.41C91.0753 67.554 91.6633 67.758 92.3473 68.022C93.0313 68.286 93.7033 68.664 94.3633 69.156C95.0233 69.636 95.5693 70.278 96.0013 71.082C96.4453 71.874 96.6673 72.87 96.6673 74.07C96.6673 75.234 96.4453 76.278 96.0013 77.202C95.5573 78.126 94.9213 78.912 94.0933 79.56C93.2653 80.196 92.2873 80.682 91.1593 81.018C90.0313 81.366 88.7893 81.54 87.4333 81.54Z" fill="white"/>
</svg>
