<svg width="120" height="64" viewBox="0 0 120 64" fill="none" xmlns="http://www.w3.org/2000/svg">
<path d="M70.5928 25.1723V25.2545V25.3368V25.4191V25.5013L70.6746 25.5836V25.6659V25.7481V25.8304L70.7564 25.9126V25.9949V26.0772V26.1594V26.2417V26.324V26.4062H70.8382V26.4885V26.5707L72.3924 26.4062V26.324V26.2417V26.1594V26.0772V25.9949L72.3106 25.9126V25.8304V25.7481V25.6659V25.5836V25.5013L72.2288 25.4191V25.3368V25.2545V25.1723L72.147 25.09V25.0078V24.9255V24.8432V24.761L72.0652 24.6787L70.511 25.09V25.1723H70.5928Z" fill="#1D1D1B"/>
<path d="M71.4932 22.9509V22.8687V22.7864L71.4114 22.7041V22.6219L71.3296 22.5396V22.4574V22.3751L71.2478 22.2928V22.2106H71.166V22.1283L71.0842 22.046V21.9638L71.0024 21.8815V21.7993V21.717L70.9206 21.6347V21.5525H70.8388V21.4702L69.4482 22.2928V22.3751L69.53 22.4574L69.6118 22.5396V22.6219V22.7041L69.6936 22.7864L69.7754 22.8687V22.9509V23.0332L69.8572 23.1155V23.1977L69.939 23.28V23.3622V23.4445H70.0208V23.5268V23.609L70.1026 23.6913L71.575 23.0332L71.4932 22.9509Z" fill="#1D1D1B"/>
<path d="M69.8563 19.9898L69.7745 19.9075V19.8253L69.6927 19.743L69.6109 19.6607L69.5291 19.5785V19.4962L69.4473 19.414H69.3655V19.3317L69.2837 19.2494L69.2019 19.1672L69.1201 19.0849L69.0383 19.0026V18.9204H68.9565L68.8747 18.8381V18.7559H68.7929L67.6477 19.8253V19.9075H67.7295L67.8113 19.9898V20.0721H67.8931V20.1543L67.9749 20.2366H68.0567V20.3188L68.1385 20.4011L68.2203 20.4834L68.3021 20.5656V20.6479L68.3839 20.7302L68.4657 20.8124L68.5475 20.8947L68.6293 20.9769L69.9381 20.0721L69.8563 19.9898Z" fill="#1D1D1B"/>
<path d="M67.5658 17.5218H67.484L67.4022 17.4396L67.3204 17.3573L67.2386 17.275H67.1568L67.075 17.1928L66.9932 17.1105L66.9114 17.0282H66.8296L66.7478 16.946L66.666 16.8637H66.5842L66.5024 16.7815L66.4206 16.6992L66.3388 16.6169H66.257L66.1752 16.5347L65.3572 17.9331L65.439 18.0154H65.5208L65.6026 18.0977L65.6844 18.1799H65.7662V18.2622H65.848L65.9298 18.3444H66.0116V18.4267H66.0934L66.1752 18.509L66.257 18.5912L66.3388 18.6735L66.4206 18.7557H66.5024V18.838H66.5842L67.5658 17.6041V17.5218Z" fill="#1D1D1B"/>
<path d="M62.8221 16.6992L62.9039 16.7815H62.9857L63.0675 16.8637H63.1493H63.2311L63.3129 16.946H63.3947L63.4765 17.0283H63.5583H63.6401V17.1105H63.7219H63.8037L63.8855 17.1928H63.9672L64.7034 15.7121H64.6216H64.5399L64.4581 15.6298H64.3762L64.2944 15.5475H64.2127H64.1309L64.0491 15.4653H63.9672H63.8855V15.383H63.8037L63.7219 15.3008H63.6401H63.5583L63.4765 15.2185H63.3947H63.3129L63.2311 15.1362H63.1493H63.0675L62.5767 16.6992H62.6585H62.7403H62.8221Z" fill="#1D1D1B"/>
<path d="M59.7954 16.1235L59.8772 16.2058H59.959H60.0408H60.1226H60.2044H60.2862H60.368H60.4498H60.5316H60.6134L60.6952 16.2881H60.777H60.8588H60.9406H61.0224H61.1042L61.4314 14.7251H61.3496H61.2678H61.186L61.1042 14.6428H61.0224H60.9406H60.8588H60.777H60.6952H60.6134L60.5316 14.5605H60.4498H60.368H60.2862H60.2044H60.1226H60.0408H59.959H59.8772H59.7954H59.7136L59.6318 16.1235H59.7136H59.7954Z" fill="#1D1D1B"/>
<path d="M81.3079 25.2546V25.4191V25.5014V25.5837V25.7482V25.8305V25.9127L81.2261 26.0772V26.1595V26.324V26.4063V26.5708L81.1443 26.6531V26.8176H83.7619V26.6531V26.4886L83.8437 26.4063V26.2418V26.0772V25.9127V25.8305V25.6659V25.5014L83.9255 25.3369V25.2546L81.3079 25.1724V25.2546Z" fill="#1D1D1B"/>
<path d="M80.8994 20.401V20.5656V20.7301L80.9812 20.8123V20.9769V21.1414L81.063 21.2237V21.3882V21.5527V21.635L81.1448 21.7995V21.964V22.0463V22.2108V22.3753L81.2266 22.5399V22.6221V22.7866L83.7624 22.5399V22.3753V22.2108V22.0463L83.6806 21.8818V21.7172V21.635V21.4704L83.5988 21.3059V21.1414V20.9769V20.8123L83.517 20.6478V20.4833V20.401L83.4352 20.2365V20.072L83.3534 19.9075V19.8252L80.8176 20.401H80.8994Z" fill="#1D1D1B"/>
<path d="M79.3452 15.712L79.427 15.8765V15.9588L79.5088 16.1233L79.5906 16.2056V16.3701L79.6724 16.4523L79.7542 16.6169V16.6991L79.836 16.8637L79.9178 16.9459V17.1104L79.9996 17.275V17.3572L80.0814 17.5218V17.604L80.1632 17.7685V17.8508L80.245 18.0153L82.699 17.1927L82.6172 17.1104V16.9459L82.5354 16.7814L82.4536 16.6169V16.5346L82.3718 16.3701V16.2056L82.29 16.041L82.2082 15.9588V15.7943L82.1264 15.6297L82.0446 15.4652V15.3829L81.9628 15.2184L81.881 15.0539L81.7992 14.9716V14.8071L81.7174 14.6426L79.3452 15.712Z" fill="#1D1D1B"/>
<path d="M76.8911 11.5166L76.9729 11.6811L77.0547 11.7634L77.1365 11.8456L77.2183 12.0102L77.3001 12.0924L77.3819 12.1747L77.4637 12.3392L77.5455 12.4215L77.6273 12.5037L77.7091 12.6683V12.7505L77.7909 12.9151L77.8727 12.9973L77.9545 13.0796L78.0363 13.2441L78.1181 13.3264L78.1999 13.4086V13.5732L80.4085 12.257V12.0924L80.3267 12.0102L80.2449 11.8456L80.1631 11.7634L80.0813 11.5989L79.9995 11.4343L79.9177 11.3521L79.8359 11.1875L79.7541 11.1053L79.6723 10.9408L79.5905 10.8585L79.5087 10.694L79.4269 10.6117L79.3451 10.4472L79.2633 10.3649L79.1815 10.2004L79.0179 10.1181L78.9361 10.0359V9.95361L76.8911 11.5166Z" fill="#1D1D1B"/>
<path d="M73.7014 8.06144L73.865 8.22596L73.9468 8.30823L74.0286 8.39049L74.1104 8.47275L74.1922 8.55501L74.3558 8.63728L74.4376 8.71954L74.5194 8.8018L74.6012 8.88406L74.683 9.04859L74.7648 9.13085L74.9284 9.21311L75.0102 9.29537L75.092 9.37764L75.1738 9.4599L75.2556 9.62442H75.3374L77.2188 7.89692L77.137 7.81465L77.0552 7.73239L76.9734 7.56787L76.8098 7.4856L76.728 7.40334L76.6462 7.23882L76.4826 7.15655L76.4008 7.07429L76.319 6.99203L76.2372 6.82751L76.0736 6.74524L75.9918 6.66298L75.91 6.58072L75.7464 6.41619L75.6646 6.33393L75.5828 6.25167L75.4192 6.16941L75.3374 6.08715L75.2556 6.00488L73.5378 7.97918H73.6196L73.7014 8.06144Z" fill="#1D1D1B"/>
<path d="M69.6934 5.265L69.7752 5.34726H69.9388L70.0206 5.42953L70.1842 5.51179L70.266 5.59405L70.3478 5.67631L70.5114 5.75857H70.5932L70.7568 5.84084L70.8386 5.9231L70.9204 6.00536L71.084 6.08762L71.1658 6.16989L71.3294 6.25215L71.4112 6.33441L71.493 6.41667H71.6566L73.0472 4.27785L72.9654 4.19559L72.8018 4.11333L72.72 4.03107L72.5564 3.9488L72.4746 3.86654L72.311 3.78428L72.2292 3.70202L72.0656 3.61976H71.9838L71.8202 3.53749L71.6566 3.45523L71.5748 3.37297L71.4112 3.29071L71.3294 3.20844L71.1658 3.12618L71.0022 3.04392L70.9204 2.96166L70.7568 2.87939L69.5298 5.18274L69.6934 5.265Z" fill="#1D1D1B"/>
<path d="M65.2759 3.45492H65.4395L65.5213 3.53718H65.6849L65.8485 3.61944H65.9303L66.0939 3.7017H66.1757L66.3393 3.78397H66.5029L66.5847 3.86623L66.7483 3.94849H66.8301L66.9937 4.03075H67.0755L67.2391 4.11301H67.3209L68.3025 1.72741H68.1389L68.0571 1.64515L67.8935 1.56288H67.7299L67.5663 1.48062L67.4845 1.39836H67.3209L67.1573 1.3161H66.9937L66.9119 1.23383L66.7483 1.15157H66.5847L66.4211 1.06931H66.3393L66.1757 0.987047H66.0121L65.8485 0.904785H65.6849L65.0305 3.37265H65.1941L65.2759 3.45492Z" fill="#1D1D1B"/>
<path d="M60.5318 2.63239H60.6136H60.7772H60.9408H61.1044H61.1862H61.3498L61.5134 2.71466H61.5952H61.7588H61.9224H62.0042L62.1678 2.79692H62.3314H62.495H62.5768L62.6586 2.87918L63.0676 0.329049L62.9858 0.246787H62.8222H62.6586H62.5768L62.4132 0.164525H62.2496H62.086H61.9224L61.7588 0.0822623H61.5952H61.4316H61.268H61.1044L60.9408 0H60.859H60.6954H60.5318H60.3682L60.2046 2.55013L60.3682 2.63239H60.5318Z" fill="#1D1D1B"/>
<path d="M76.0732 25.5014V25.5836L76.155 25.7482V25.8304V25.9127V26.0772V26.1595V26.2417V26.4063L76.2368 26.4885V26.5708V26.7353V26.8176H78.4454V26.6531V26.5708V26.4063V26.324V26.1595V26.0772V25.9127L78.3636 25.8304V25.6659V25.5836V25.4191V25.3369L78.2818 25.1723V25.0901V25.0078L76.0732 25.4191V25.5014Z" fill="#1D1D1B"/>
<path d="M75.0095 21.4703V21.6348L75.0913 21.7171V21.7993L75.1731 21.8816V21.9639L75.2549 22.1284V22.2107L75.3367 22.2929V22.3752V22.4574L75.4185 22.622V22.7042L75.5003 22.7865V22.8687V23.0333L75.5821 23.1155V23.1978V23.2801L77.7907 22.7042V22.5397L77.7089 22.4574V22.2929L77.6271 22.2107V22.1284L77.5453 21.9639V21.8816L77.4635 21.7993V21.6348L77.3817 21.5526V21.388V21.3058L77.2999 21.2235L77.2181 21.059V20.9767L77.1363 20.8945V20.7299L77.0545 20.6477V20.5654L76.9727 20.4009L74.9277 21.3058V21.388L75.0095 21.4703Z" fill="#1D1D1B"/>
<path d="M72.8833 17.7688L72.9651 17.8511L73.0469 17.9333L73.1287 18.0156V18.0979L73.2105 18.1801L73.2923 18.2624V18.3446L73.3741 18.4269L73.4559 18.5092L73.5377 18.5914V18.756L73.6195 18.8382L73.7013 18.9205V19.0027L73.7831 19.085L73.8649 19.1673V19.2495L73.9467 19.3318V19.4141L75.9099 18.2624V18.1801L75.8281 18.0979L75.7463 18.0156V17.9333L75.6645 17.7688L75.5827 17.6865L75.5009 17.6043L75.4191 17.522V17.3575L75.3373 17.2752L75.2555 17.193L75.1737 17.1107V17.0284L75.0919 16.9462L75.0101 16.7817L74.9283 16.6994L74.8465 16.6171L74.7647 16.5349V16.4526L74.6829 16.3703L74.6011 16.2881L72.8015 17.6043L72.8833 17.6865V17.7688Z" fill="#1D1D1B"/>
<path d="M72.9651 14.396L72.8833 14.3137L72.8015 14.2315L72.7197 14.1492L72.6379 14.0669L72.5561 13.9847L72.4743 13.9024L72.3925 13.8202L72.3107 13.7379L72.2289 13.6556L72.1471 13.5734L72.0653 13.4911L71.9835 13.4088L71.9017 13.3266L71.8199 13.2443L71.7381 13.1621L71.6563 13.0798L71.5745 12.9975L71.4109 12.9153L71.3291 12.833L69.8567 14.5605L69.9385 14.6428L70.0203 14.725H70.1021L70.1839 14.8073L70.2657 14.8896L70.3475 14.9718L70.4293 15.0541L70.5111 15.1363H70.5929L70.6747 15.2186V15.3009L70.7565 15.3831L70.8383 15.4654L70.9201 15.5477L71.0019 15.6299H71.0837L71.1655 15.7122L71.2473 15.7944L71.3291 15.8767L71.4109 15.959V16.0412L73.0469 14.396H72.9651Z" fill="#1D1D1B"/>
<path d="M68.1385 10.694H68.0567L67.8931 10.6118L67.8113 10.5295H67.7295L67.6477 10.4472L67.4841 10.365H67.4023L67.3205 10.2827H67.2387L66.2571 12.3393H66.3389L66.4207 12.4215H66.5025L66.5843 12.5038H66.7479L66.8297 12.5861L66.9115 12.6683H66.9933L67.0751 12.7506H67.1569L67.2387 12.8328L67.3205 12.9151H67.4841L67.5659 12.9974H67.6477L67.7295 13.0796L67.8113 13.1619H67.8931L67.9749 13.2442L68.0567 13.3264H68.1385L69.3655 11.4344L69.2837 11.3521L69.1201 11.2699H69.0383L68.9565 11.1876L68.8747 11.1053H68.7929L68.6293 11.0231L68.5475 10.9408L68.4657 10.8586H68.3021L68.2203 10.7763L68.1385 10.694Z" fill="#1D1D1B"/>
<path d="M62.9032 8.88451L62.7396 8.80225H62.6578L62.2488 11.0233H62.3306L62.4124 11.1056H62.576H62.6578H62.7396L62.8214 11.1879H62.985H63.0668L63.1486 11.2701H63.2304H63.394L63.4758 11.3524H63.5576H63.6394L63.803 11.4346H63.8848H63.9666L64.0484 11.5169H64.212H64.2938V11.5992L65.03 9.37808H64.9482H64.8664L64.7028 9.29582H64.621L64.5392 9.21356H64.3756H64.2938L64.1302 9.1313H64.0484H63.9666L63.803 9.04903H63.7212L63.5576 8.96677H63.4758H63.3122L63.2304 8.88451H63.1486H62.985H62.9032Z" fill="#1D1D1B"/>
<path d="M62.822 54.7866L62.6584 54.9511L62.5766 55.1157L62.4948 55.1979L62.3312 55.3625L62.2494 55.527L62.1676 55.6092L62.004 55.7738L61.9222 55.9383L61.7586 56.0206L61.6768 56.1851L61.595 56.2673L61.5132 56.4319L61.3496 56.5964L61.2678 56.6787L61.186 56.8432L63.1492 58.4062L63.231 58.3239L63.3946 58.1594L63.4764 58.0771L63.5582 57.9126L63.7218 57.8303L63.8036 57.6658L63.8854 57.5013L64.049 57.419L64.1308 57.2545L64.2126 57.1722L64.3762 57.0077L64.458 56.8432L64.5398 56.7609L64.7034 56.5964L64.7852 56.4319L62.822 54.7866Z" fill="#1D1D1B"/>
<path d="M66.0119 50.9204L65.8484 51.0849L65.7666 51.1672L65.603 51.3317L65.5212 51.4962L65.3576 51.6607L65.2758 51.8253L65.1122 51.9075L65.0304 52.0721L64.9486 52.2366L64.785 52.4011L64.7032 52.5656L64.5396 52.6479L64.4578 52.8124L66.4209 54.4577L66.5028 54.2931L66.6663 54.2109L66.7481 54.0463L66.9117 53.8818L66.9935 53.7173L67.1571 53.635L67.2389 53.4705L67.4025 53.306L67.4843 53.1415L67.6479 52.9769L67.7297 52.8947L67.8933 52.7302L67.9751 52.5656L68.0569 52.4834L66.0938 50.7559L66.0119 50.9204Z" fill="#1D1D1B"/>
<path d="M59.0594 12.5037C59.7956 11.1052 60.2864 10.118 61.1044 8.63732L60.1228 6.66303L59.1412 4.771L58.0778 6.74529L57.0962 8.71959C57.7506 10.0358 58.405 11.1875 59.0594 12.5037Z" fill="#1D1D1B"/>
<path d="M46.5434 6.41644H46.6252L46.707 6.33418L46.8706 6.25192L46.9524 6.16965L47.116 6.08739L47.1978 6.00513L47.2796 5.92287L47.4432 5.84061L47.525 5.75834H47.6068L47.7704 5.67608L47.8522 5.59382L48.0158 5.51156L48.0976 5.42929L48.2612 5.34703H48.343L48.4248 5.26477H48.5066L47.2796 2.96143H47.1978L47.116 3.04369L46.9524 3.12595L46.8706 3.20821L46.707 3.29047L46.5434 3.37274L46.4616 3.455L46.298 3.53726L46.2162 3.61952H46.0526L45.9708 3.70179L45.8073 3.78405L45.7255 3.86631L45.5619 3.94857L45.3983 4.03084L45.3165 4.1131L45.1529 4.19536L45.0711 4.27762L44.9893 4.35988L46.4616 6.4987L46.5434 6.41644Z" fill="#1D1D1B"/>
<path d="M51.2882 19.0028H51.37L51.4518 18.9206L51.5336 18.8383H51.6154V18.756H51.6972L51.779 18.6738H51.8608V18.5915L51.9426 18.5092H52.0244V18.427H52.1062L52.188 18.3447L52.2698 18.2625H52.3516L52.4334 18.1802L52.5152 18.0979L51.6154 16.7817L51.5336 16.864H51.4518V16.9463H51.37L51.2882 17.0285H51.2064L51.1246 17.1108V17.193H51.0428L50.961 17.2753H50.8792L50.7974 17.3576V17.4398H50.7156L50.6339 17.5221H50.552V17.6044L50.4703 17.6866H50.3884L50.3067 17.7689V17.8511H50.2249L51.2882 19.0851V19.0028Z" fill="#1D1D1B"/>
<path d="M50.1425 13.2444L50.2243 13.1621H50.3061L50.3879 13.0799L50.4697 12.9976H50.6333L50.7151 12.9153H50.7969L50.8787 12.8331L50.9605 12.7508H51.0423L51.1241 12.6686H51.2059L51.3695 12.5863L51.4513 12.504H51.5331L51.6149 12.4218H51.6967L51.7785 12.3395H51.8603L51.9421 12.2572L51.0423 10.2007L50.9605 10.2829H50.8787L50.7151 10.3652H50.6333L50.5515 10.4475L50.3879 10.5297H50.3061L50.2243 10.612L50.1425 10.6943H49.9789L49.8971 10.7765L49.8153 10.8588H49.7335L49.5699 10.941L49.4881 11.0233L49.4063 11.1056H49.3245L49.1609 11.1878L49.0791 11.2701H48.9973L48.9155 11.3524L50.0607 13.3267L50.1425 13.2444Z" fill="#1D1D1B"/>
<path d="M39.9181 13.5734L39.9999 13.4089V13.3266L40.0817 13.2444L40.1635 13.0798L40.2453 12.9976L40.3271 12.9153L40.4089 12.7508L40.4907 12.6685L40.5725 12.504L40.6543 12.4217V12.3395L40.7361 12.175L40.8179 12.0927L40.8997 12.0104L40.9815 11.8459L41.0633 11.7636L41.1451 11.6814L41.2269 11.5991L39.1001 10.0361V10.1184L39.0183 10.2007L38.9365 10.3652L38.8547 10.4474L38.7729 10.612L38.6911 10.6942L38.5275 10.8588L38.4457 10.941L38.3639 11.1055L38.2821 11.1878L38.2003 11.3523L38.1185 11.4346L38.0367 11.5991L37.9549 11.7636V11.8459L37.8731 12.0104L37.7913 12.0927L37.7095 12.2572L37.6277 12.3395L39.8363 13.6557L39.9181 13.5734Z" fill="#1D1D1B"/>
<path d="M42.7808 9.70694L42.8626 9.62468L42.9444 9.46016L43.0262 9.37789L43.108 9.29563L43.2716 9.21337L43.3534 9.13111L43.4352 9.04884L43.517 8.88432L43.5988 8.80206L43.6806 8.7198L43.8442 8.63753L43.926 8.55527L44.0078 8.47301L44.0896 8.39075L44.1714 8.30848L44.335 8.22622L44.4168 8.0617L44.4986 7.97943L42.8626 6.0874H42.7808L42.699 6.16966L42.6172 6.25193L42.4536 6.33419L42.3718 6.41645L42.29 6.58098L42.1264 6.66324L42.0446 6.7455L41.9628 6.82776L41.7992 6.99229L41.7174 7.07455L41.6356 7.15681L41.5538 7.23907L41.3902 7.4036L41.3084 7.48586L41.2266 7.56812L41.063 7.73265L40.9812 7.81491L40.8994 7.89717V7.97943L42.7808 9.70694Z" fill="#1D1D1B"/>
<path d="M46.8716 15.8765V15.7942L46.9534 15.7119L47.0352 15.6297H47.117L47.1988 15.5474L47.2806 15.4651L47.3624 15.3829L47.4442 15.3006L47.526 15.2184L47.6078 15.1361H47.6896L47.7714 15.0538L47.8532 14.9716L47.935 14.8893V14.807L48.0168 14.7248H48.0986L48.1804 14.6425L48.2622 14.5603L48.344 14.478L46.9534 12.7505L46.8716 12.8328H46.7898L46.708 12.915L46.6262 12.9973L46.5444 13.0795L46.4626 13.1618L46.3808 13.2441L46.2172 13.3263L46.1354 13.4086L46.0536 13.4908L45.9718 13.5731L45.89 13.6554L45.8082 13.7376L45.7264 13.8199L45.6446 13.9022L45.5628 13.9844L45.481 14.0667L45.3992 14.1489L45.3174 14.2312L45.2356 14.3135H45.1538L46.7898 15.9587L46.8716 15.8765Z" fill="#1D1D1B"/>
<path d="M50.797 4.19528L50.8788 4.11301L51.0424 4.03075H51.1242L51.2878 3.94849H51.4514L51.5332 3.86623L51.6968 3.78397H51.7786L51.9422 3.7017H52.024L52.1876 3.61944H52.3512L52.433 3.53718H52.5966L52.6784 3.45492H52.842L53.0056 3.37265L52.3512 0.904785H52.2694L52.1058 0.987047H51.9422L51.8604 1.06931H51.6968L51.5332 1.15157H51.3696L51.2878 1.23383L51.1242 1.3161H50.9606L50.797 1.39836H50.7152L50.5516 1.48062L50.388 1.56288H50.2244L50.1426 1.64515L49.979 1.72741H49.8154L49.7336 1.80967L50.7152 4.19528H50.797Z" fill="#1D1D1B"/>
<path d="M55.378 2.87918L55.5416 2.79692H55.7052H55.787H55.9506L56.1142 2.71466H56.196H56.3596H56.5232H56.6868L56.7686 2.63239H56.9322H57.0958H57.1776H57.3412H57.5048H57.6684H57.7502H57.832L57.6684 0H57.5048H57.3412H57.1776L57.014 0.0822623H56.8504H56.6868H56.5232H56.3596L56.196 0.164525H56.0324H55.8688H55.787L55.6234 0.246787H55.4598H55.2962H55.1326L54.969 0.329049L55.378 2.87918Z" fill="#1D1D1B"/>
<path d="M56.7689 16.3703H56.8507H56.9325L57.0143 16.2881H57.0961H57.1779H57.2597H57.3415H57.4233L57.5051 16.2058H57.5869H57.6687H57.7505H57.8323H57.9141H57.9959H58.0777H58.1595L57.9959 14.5605H57.9141H57.8323H57.7505H57.6687H57.5869L57.5051 14.6428H57.4233H57.3415H57.2597H57.1779H57.0961H57.0143L56.9325 14.7251H56.8507H56.7689H56.6871H56.6053H56.5235L56.4417 14.8073H56.3599H56.2781L56.6871 16.3703H56.7689Z" fill="#1D1D1B"/>
<path d="M53.9877 11.5169H54.0695L54.1513 11.4346H54.2331H54.3967L54.4785 11.3524H54.5603H54.6421L54.8057 11.2701H54.8875H54.9693L55.0511 11.1879H55.2147H55.2964L55.3782 11.1056H55.4601H55.6236H55.7054L55.7872 11.0233H55.9508L55.5419 8.80225H55.3782L55.2964 8.88451H55.1329H55.0511H54.8875L54.8057 8.96677H54.6421H54.5603L54.4785 9.04903H54.3149L54.2331 9.1313H54.0695H53.9877L53.8241 9.21356H53.7423H53.6605L53.4969 9.29582H53.4151L53.2515 9.37808L53.9059 11.5169H53.9877Z" fill="#1D1D1B"/>
<path d="M34.2744 25.6657V25.8302V25.9125V26.077V26.2415L34.3562 26.4061V26.4883V26.6529V26.8174H36.9738V26.6529V26.5706L36.892 26.4061V26.3238V26.1593V26.077V25.9948V25.8302V25.748L36.8102 25.5834V25.5012V25.4189V25.2544L34.2744 25.4189V25.5012V25.6657Z" fill="#1D1D1B"/>
<path d="M53.8243 17.3573H53.9061V17.2751H53.9879H54.0697L54.1515 17.1928H54.2333L54.3151 17.1106H54.3969H54.4787L54.5605 17.0283H54.6423L54.7241 16.946H54.8059H54.8877L54.9695 16.8638H55.0513L55.1331 16.7815H55.2149L54.6423 15.3008H54.5605H54.4787L54.3969 15.383H54.3151L54.2333 15.4653H54.1515H54.0697L53.9879 15.5476H53.9061H53.8243L53.7425 15.6298H53.6607L53.5789 15.7121H53.4971L53.4153 15.7944H53.3335L53.2517 15.8766H53.1699L53.0881 15.9589L53.8243 17.3573Z" fill="#1D1D1B"/>
<path d="M48.4249 19.7431V19.8253L48.3431 19.9076L48.2613 19.9898L48.1795 20.0721V20.1544L48.0977 20.2366V20.3189H48.0159V20.4012L49.3247 21.306L49.4065 21.2238V21.1415L49.4883 21.0593L49.5701 20.977V20.8947H49.6519V20.8125L49.7337 20.7302L49.8155 20.6479V20.5657L49.8973 20.4834H49.9791V20.4012H50.0609V20.3189L50.1427 20.2366L50.2245 20.1544L48.9975 19.085V19.1672H48.9157L48.8339 19.2495V19.3317L48.7521 19.414H48.6703V19.4963L48.5885 19.5785L48.5067 19.6608L48.4249 19.7431Z" fill="#1D1D1B"/>
<path d="M47.9341 23.9384L48.0159 23.8561V23.7739L48.0977 23.6916V23.6093V23.5271L48.1795 23.4448V23.3626L48.2613 23.2803V23.198V23.1158H48.3431V23.0335V22.9512L48.4249 22.869V22.7867H48.5067V22.7045V22.6222L47.1161 21.8818L47.0343 21.9641V22.0464L46.9525 22.1286V22.2109L46.8707 22.2931V22.3754L46.7889 22.4577V22.5399V22.6222L46.7071 22.7045V22.7867L46.6253 22.869V22.9512V23.0335L46.5435 23.1158V23.198L46.4617 23.2803V23.3626L46.3799 23.4448L47.9341 24.0207V23.9384Z" fill="#1D1D1B"/>
<path d="M56.6871 57.0075L56.6052 56.843L56.5234 56.6784L56.3599 56.5962L56.2781 56.4317L56.1963 56.3494L56.0327 56.1849L55.9509 56.0203L55.8691 55.9381L55.7873 55.7736L55.6237 55.609L55.5419 55.5268L55.4601 55.3623L55.2965 55.1977L55.2147 55.1155L55.1329 55.0332L53.1697 56.6784L53.3333 56.843L53.4151 57.0075L53.4969 57.0898L53.6605 57.2543L53.7423 57.4188L53.8241 57.5011L53.9877 57.6656L54.0695 57.8301L54.1513 57.9124L54.3149 58.0769L54.3967 58.1592L54.4785 58.3237L54.5603 58.4882L54.7239 58.5705V58.6527L56.7688 57.0898L56.6871 57.0075Z" fill="#1D1D1B"/>
<path d="M53.4971 52.9767L53.3335 52.8122L53.2517 52.6477L53.1699 52.5654L53.0063 52.4009L52.9245 52.2364L52.7609 52.0719L52.6791 51.9896L52.5155 51.8251L52.4337 51.6605L52.2701 51.496L52.1883 51.3315L52.1065 51.2492L51.9429 51.0847V51.0024L49.8979 52.6477L49.9797 52.7299L50.0615 52.8122L50.2251 52.9767L50.3069 53.1413L50.3887 53.3058L50.5523 53.4703L50.6341 53.5526L50.7977 53.7171L50.8795 53.8816L51.0431 54.0461L51.1249 54.2107L51.2885 54.2929L51.3703 54.4575L51.4521 54.622H51.5339L53.4971 53.059V52.9767Z" fill="#1D1D1B"/>
<path d="M36.8917 22.7864L36.9735 22.6219V22.5396V22.3751V22.2106V22.046L37.0553 21.9638V21.7993V21.6347V21.5525V21.3879L37.1371 21.2234V21.1412V20.9766L37.2189 20.8121V20.7298V20.5653L37.3007 20.4831L34.765 19.9072L34.6832 20.0718V20.2363V20.4008L34.6014 20.4831V20.6476V20.8121L34.5196 20.9766V21.1412V21.3057V21.4702L34.4378 21.6347V21.717V21.8815V22.046L34.356 22.2106V22.3751V22.5396V22.6219L36.8917 22.8687V22.7864Z" fill="#1D1D1B"/>
<path d="M56.3601 60.7096L56.4419 60.7918L59.0595 64.0001L61.7589 60.7096L59.0595 58.2417L56.3601 60.7096Z" fill="#1D1D1B"/>
<path d="M59.0587 50.7559L57.9135 52.2366L56.7683 53.7173L57.9135 55.2803L59.0587 56.761L60.2039 55.2803L61.3491 53.7173L60.2039 52.2366L59.1405 50.7559H59.0587Z" fill="#1D1D1B"/>
<path d="M39.8367 24.9253V25.0898V25.1721V25.3366L39.7549 25.4189V25.5834V25.6657V25.8302V25.9124V26.077L39.6731 26.1592V26.3238V26.406V26.5705V26.6528V26.8173H41.8817L41.9635 26.7351V26.5705V26.4883V26.406V26.2415V26.1592V26.077V25.9124L42.0453 25.8302V25.7479V25.5834V25.5011V25.4189L42.1271 25.2543L39.8367 24.9253Z" fill="#1D1D1B"/>
<path d="M37.8729 18.0156L37.9547 17.8511V17.7688L38.0365 17.6043V17.522L38.1183 17.3575L38.2001 17.2752V17.1107L38.2819 16.9462V16.8639L38.3637 16.6994L38.4455 16.6171V16.4526L38.5273 16.3703V16.2058L38.6091 16.1236L38.6909 15.959V15.8768L38.7727 15.7945L36.4005 14.7251V14.8074L36.3187 14.9719L36.2369 15.0541L36.1551 15.2187V15.3832L36.0733 15.4655L35.9915 15.63V15.7945L35.9097 15.959L35.8279 16.0413V16.2058L35.7461 16.3703L35.6643 16.5349V16.6171L35.5825 16.7817V16.9462L35.5007 17.1107L35.4189 17.193V17.2752L37.8729 18.0979V18.0156Z" fill="#1D1D1B"/>
<path d="M44.2535 19.2493L44.3353 19.167V19.0847L44.4171 19.0025L44.4989 18.9202V18.838L44.5807 18.7557L44.6625 18.5912V18.5089L44.7443 18.4266L44.8261 18.3444L44.9079 18.2621V18.1799L44.9897 18.0976L45.0715 18.0153V17.9331L45.1533 17.8508L45.2351 17.7685L45.3169 17.6863V17.604L45.3987 17.5218L43.5991 16.2056H43.5173V16.3701L43.4355 16.4524L43.3537 16.5346L43.2719 16.6169L43.1901 16.6991L43.1083 16.7814V16.9459L43.0265 17.0282L42.9447 17.1105L42.8629 17.1927L42.7811 17.275V17.3572L42.6993 17.5218L42.6175 17.604L42.5357 17.6863V17.7685L42.4539 17.9331L42.3721 18.0153L42.2903 18.0976V18.1799L44.2535 19.3315V19.2493Z" fill="#1D1D1B"/>
<path d="M42.5362 23.198L42.618 23.1158V23.0335V22.869L42.6998 22.7867V22.7045L42.7816 22.6222V22.4577V22.3754L42.8634 22.2931V22.2109L42.9452 22.1286V21.9641L43.027 21.8818V21.7996V21.7173L43.1088 21.635V21.4705L43.1906 21.3883V21.306L43.2724 21.2237L41.2274 20.3188L41.1456 20.4011L41.0638 20.5656V20.6479L40.982 20.7302V20.8947L40.9002 20.9769V21.0592L40.8184 21.2237V21.306L40.7366 21.3883V21.5528L40.6548 21.635V21.7996L40.573 21.8818V21.9641L40.4912 22.1286V22.2109V22.2931L40.4094 22.4577V22.5399V22.6222L42.5362 23.198Z" fill="#1D1D1B"/>
<path d="M47.2798 26.7351V26.6528L47.3616 26.5706V26.4883V26.406V26.3238V26.2415V26.1593V26.077L47.4434 25.9947V25.9125V25.8302V25.7479V25.6657L47.5252 25.5834V25.5012V25.4189L45.971 25.0898V25.1721L45.8892 25.2544V25.3366V25.4189V25.5012V25.5834L45.8074 25.6657V25.7479V25.8302V25.9125V25.9947V26.077L45.7256 26.1593V26.2415V26.3238V26.406V26.4883V26.5706V26.6528V26.7351V26.8174H47.2798V26.7351Z" fill="#1D1D1B"/>
<path d="M118.691 39.0746L113.211 34.797C112.474 34.2211 112.147 33.4808 112.147 32.7404C112.147 30.8484 113.865 30.0257 115.501 30.0257C117.055 30.0257 118.528 30.6016 118.528 32.4114H118.855L118.773 29.4499H117.873C117.137 29.2854 116.319 29.2031 115.337 29.2031C113.701 29.2031 112.147 29.779 111.247 31.1774C110.266 32.7404 110.593 34.9615 111.984 36.1954L117.464 40.3908C118.119 40.9666 118.446 41.707 118.446 42.6119C118.446 44.7507 116.483 45.6556 114.601 45.6556C112.311 45.6556 110.675 44.1749 111.002 41.7893H110.675C110.429 42.4474 110.348 43.1877 110.348 43.8458C110.348 44.5039 110.348 44.9975 110.429 45.162C111.493 46.1492 113.701 46.4782 115.174 46.4782C117.71 46.4782 120 44.6684 120 42.036C120 40.7198 119.509 39.7327 118.691 39.0746Z" fill="#1D1D1B"/>
<path d="M90.634 45.3264C90.3068 45.0796 90.0614 44.6683 90.0614 44.2569V31.2595C90.0614 30.8482 90.3068 30.5191 90.634 30.2724C91.1248 29.861 91.6156 29.861 92.27 29.861V29.6143H86.135V29.861C86.7894 29.861 87.2802 29.861 87.771 30.2724C88.0982 30.6014 88.3436 30.9305 88.3436 31.3418V44.2569C88.3436 45.1618 87.362 45.7377 86.544 45.7377H86.135V45.9845H92.3518V45.7377C91.6156 45.7377 91.1248 45.7377 90.634 45.3264Z" fill="#1D1D1B"/>
<path d="M81.7177 43.7636C81.3087 43.3523 80.818 42.6942 80.1636 41.8716C79.5092 41.0489 79.182 40.6376 79.182 40.6376C78.364 39.486 77.6278 38.7456 77.0552 38.4988C79.591 38.252 81.3087 36.36 81.3087 33.8099C81.3087 30.6839 78.4458 29.5322 75.7464 29.5322H68.8752V29.779H69.2842C70.1022 29.779 70.8384 30.3548 70.8384 31.1775V44.1749C70.8384 44.5862 70.6748 44.9153 70.3476 45.2443C69.8568 45.6556 69.4478 45.6556 68.8752 45.6556V45.9024H74.4376V45.6556C74.0286 45.6556 73.7014 45.6556 73.2924 45.4911C72.8016 45.1621 72.5562 44.7508 72.5562 44.1749V30.4371H74.0286C75.501 30.4371 77.137 30.3548 78.364 31.4243C79.6728 32.6582 79.591 34.9615 78.6912 36.4423C78.4458 36.7713 78.0368 37.1004 77.4642 37.4294C77.0552 37.6762 75.7464 37.7585 73.6196 37.7585V38.0052C75.3374 38.0052 76.728 40.3908 77.7096 41.707C78.6912 43.1055 79.3456 44.2572 80.818 45.2443C82.0449 46.1492 83.5991 46.0669 85.0715 46.0669V45.8202C83.4355 45.7379 82.6175 44.833 81.7177 43.7636Z" fill="#1D1D1B"/>
<path d="M66.9933 29.7787V26.3237C66.8297 26.406 66.5025 26.4883 65.9299 26.6528C65.3573 26.8173 64.6212 26.8996 63.7214 26.8996H54.478C53.5782 26.8996 52.024 26.735 51.2061 26.406V29.861H51.4515V29.3674C51.4515 28.4626 52.1059 27.7222 53.0056 27.7222H58.159V44.1746C58.159 44.6682 57.9954 44.9973 57.5864 45.3263C57.0956 45.8199 56.6866 45.8199 56.0322 45.8199V46.0667H62.0036V45.8199H61.6764C60.6948 45.8199 59.9586 45.0795 59.9586 44.0924V27.6399H65.1119C66.0117 27.6399 66.6661 28.3803 66.6661 29.2852V29.7787H66.9933Z" fill="#1D1D1B"/>
<path d="M101.677 29.5322H95.2969V29.779H95.7059C96.5239 29.779 97.2601 30.3548 97.2601 31.2597V44.2572C97.2601 44.6685 97.0965 44.9975 96.7693 45.3266C96.2785 45.7379 95.8695 45.7379 95.2969 45.7379V45.9847H100.941V45.7379C100.532 45.7379 100.205 45.7379 99.7958 45.5734C99.305 45.3266 99.0596 44.833 98.9778 44.2572V30.3548H101.595C103.886 30.3548 105.931 31.4243 105.931 33.9744C105.931 34.6325 105.849 35.1261 105.767 35.4551C105.44 36.4423 104.867 37.2649 104.049 37.6762C102.986 38.4166 101.268 38.4988 100.041 38.1698V38.4166C100.941 38.8279 101.923 39.0747 102.904 39.0747C105.849 39.0747 107.894 37.1004 107.894 34.1389C107.894 30.7662 104.622 29.5322 101.677 29.5322Z" fill="#1D1D1B"/>
<path d="M59.8767 47.8767C59.8767 47.0541 59.3041 46.8073 58.4861 47.2186C52.1875 50.5914 46.9524 45.0798 42.2898 37.3471L46.707 31.1775C47.0342 30.7662 47.4432 30.4371 47.8522 30.1903C48.5065 29.779 48.9973 29.779 49.6517 29.779V29.5322H43.5986V29.779C44.0076 29.779 44.4166 29.779 44.7438 30.1903C44.9892 30.5194 45.1528 30.8484 44.8256 31.2597L41.5536 36.2777L38.118 31.2597C37.8726 30.8484 37.9544 30.6016 38.1998 30.1903C38.4452 29.779 38.936 29.779 39.345 29.779V29.5322H32.9647V29.779H33.2919C34.2735 29.779 35.3369 30.3548 35.9095 31.1775L40.4902 37.8407L35.4187 44.4217C34.5189 45.4911 33.7827 45.7379 32.4739 45.7379V45.9847H38.4452V45.7379C38.0362 45.7379 37.5454 45.7379 37.3 45.3266C37.0546 44.9153 36.891 44.5862 37.2182 44.1749L41.2264 38.7456C48.9973 50.0978 59.9585 51.0027 59.8767 47.8767Z" fill="#1D1D1B"/>
<path d="M7.77094 45.1619H3.84457V28.7917C3.84457 28.4626 3.92637 28.2158 4.08997 27.8868C4.58076 27.0642 5.15336 27.0642 5.97135 27.0642V26.8174H0V27.0642H0.327197C1.30879 27.0642 2.04498 27.8045 2.04498 28.7917V44.0102C2.04498 44.9973 1.22699 45.7377 0.327197 45.7377H0V45.9845H11.2883L12.8425 41.5423H12.5971C11.6973 43.9279 10.3885 45.1619 7.77094 45.1619Z" fill="#1D1D1B"/>
<path d="M27.1574 29.861H27.5664C28.3026 29.861 28.8752 30.3546 28.8752 31.0127V40.2261C28.8752 43.5988 26.7484 45.6554 23.3946 45.6554C19.8772 45.6554 18.2412 43.2698 18.2412 39.897V31.0127C18.2412 30.6837 18.4048 30.4369 18.6502 30.1901C19.0592 29.7788 19.4682 29.861 19.959 29.861V29.6143H14.8057V29.861C15.2965 29.861 15.7055 29.861 16.1145 30.1901C16.3599 30.4369 16.5235 30.6837 16.5235 31.0127V40.2261C16.5235 44.3392 19.4682 46.3958 23.3128 46.3958C27.1574 46.3958 30.1021 44.3392 30.1021 40.2261V31.0127C30.1021 30.7659 30.1839 30.6014 30.2657 30.4369C30.6747 29.861 31.1655 29.861 31.8199 29.861V29.6143H27.1574V29.861V29.861Z" fill="#1D1D1B"/>
</svg>
